<svg xmlns="http://www.w3.org/2000/svg" viewBox="0 0 100 100" height="40"><path d="M6.7 14.4c0-4 4.2-7.4 12.7-10.2S38.1 0 50 0c12 0 22.2 1.4 30.7 4.2s12.7 6.2 12.7 10.2c0 .8-2.4 15.5-7.2 44-.6 3.1-4.3 6-11.1 8.9s-15.1 4.3-25 4.3-18.2-1.4-25-4.3-10.5-5.8-11-8.9c-5-27.6-7.4-42.3-7.4-44zm10.7 58.1v-.4c0-1.1.5-1.7 1.5-1.7.4 0 .8.2 1.2.5 3.1 2.5 7.2 4.4 12.2 5.8 5 1.4 9.2 2.2 12.6 2.3l5.1.3c.5 0 1.2 0 2.2-.1.9 0 2.6-.2 5.2-.5s5.1-.7 7.4-1.2 5-1.4 7.8-2.5 5.3-2.5 7.3-4.1l1.1-.5c1.1 0 1.6.6 1.6 1.7 0 .1 0 .3-.1.4-1.5 8.1-2.5 13.4-3 16.1-.7 3.3-3.9 6-9.6 8.2S57.7 100 50 100s-14.3-1.1-20-3.2-8.8-4.9-9.5-8.2c-1.3-6.3-2.3-11.7-3.1-16.1zm4.9-59.6c0 1.6 2.7 3 8.2 4.1 5.4 1.2 12 1.8 19.5 1.8 7.7 0 14.2-.6 19.7-1.7 5.4-1.1 8.2-2.5 8.2-4.1 0-1.7-2.7-3.1-8.2-4.2C64.2 7.6 57.7 7 50 7s-14.2.6-19.6 1.7-8.1 2.5-8.1 4.2zm13.9 35.3c0 3.8 1.3 7 4 9.8s6 4 9.8 4 7-1.3 9.8-4 4-6 4-9.8-1.3-7-4-9.8-6-4-9.8-4-7 1.3-9.8 4-4 6-4 9.8zm6.9 0c0 1.9.7 3.5 2 4.8 1.3 1.4 3 2 4.9 2s3.6-.7 4.9-2c1.3-1.4 2-3 2-4.8s-.7-3.5-2-4.9c-1.3-1.4-3-2-4.9-2s-3.6.7-4.9 2c-1.3 1.4-2 3-2 4.9z"/></svg>