<?xml version="1.0" encoding="utf-8"?>
<!-- Generator: Adobe Illustrator 19.1.0, SVG Export Plug-In . SVG Version: 6.00 Build 0)  -->
<svg version="1.1" xmlns="http://www.w3.org/2000/svg" xmlns:xlink="http://www.w3.org/1999/xlink" x="0px" y="0px"
	 viewBox="0 0 100 100" enable-background="new 0 0 100 100" xml:space="preserve" height="40">
<g id="LinkedIn">
</g>
<g id="Twitter">
</g>
<g id="Bitbucket">
	<path d="M6.7,14.4c0-4,4.2-7.4,12.7-10.2S38.1,0,50,0c12,0,22.2,1.4,30.7,4.2s12.7,6.2,12.7,10.2c0,0.8-2.4,15.5-7.2,44
		c-0.6,3.1-4.3,6-11.1,8.9s-15.1,4.3-25,4.3s-18.2-1.4-25-4.3s-10.5-5.8-11-8.9C9.1,30.8,6.7,16.1,6.7,14.4z M17.4,72.5v-0.4
		c0-1.1,0.5-1.7,1.5-1.7c0.4,0,0.8,0.2,1.2,0.5c3.1,2.5,7.2,4.4,12.2,5.8c5,1.4,9.2,2.2,12.6,2.3l5.1,0.3c0.5,0,1.2,0,2.2-0.1
		c0.9,0,2.6-0.2,5.2-0.5c2.6-0.3,5.1-0.7,7.4-1.2s5-1.4,7.8-2.5s5.3-2.5,7.3-4.1l1.1-0.5c1.1,0,1.6,0.6,1.6,1.7c0,0.1,0,0.3-0.1,0.4
		c-1.5,8.1-2.5,13.4-3,16.1c-0.7,3.3-3.9,6-9.6,8.2S57.7,100,50,100s-14.3-1.1-20-3.2s-8.8-4.9-9.5-8.2
		C19.2,82.3,18.2,76.9,17.4,72.5z M22.3,12.9c0,1.6,2.7,3,8.2,4.1c5.4,1.2,12,1.8,19.5,1.8c7.7,0,14.2-0.6,19.7-1.7
		c5.4-1.1,8.2-2.5,8.2-4.1c0-1.7-2.7-3.1-8.2-4.2C64.2,7.6,57.7,7,50,7S35.8,7.6,30.4,8.7S22.3,11.2,22.3,12.9z M36.2,48.2
		c0,3.8,1.3,7,4,9.8s6,4,9.8,4s7-1.3,9.8-4s4-6,4-9.8s-1.3-7-4-9.8s-6-4-9.8-4s-7,1.3-9.8,4S36.2,44.4,36.2,48.2z M43.1,48.2
		c0,1.9,0.7,3.5,2,4.8c1.3,1.4,3,2,4.9,2s3.6-0.7,4.9-2c1.3-1.4,2-3,2-4.8s-0.7-3.5-2-4.9c-1.3-1.4-3-2-4.9-2s-3.6,0.7-4.9,2
		C43.8,44.7,43.1,46.3,43.1,48.2z"/>
</g>
<g id="Github">
</g>
</svg>
