<?xml version="1.0" encoding="utf-8"?>
<!-- Generator: Adobe Illustrator 19.1.0, SVG Export Plug-In . SVG Version: 6.00 Build 0)  -->
<svg version="1.1" xmlns="http://www.w3.org/2000/svg" xmlns:xlink="http://www.w3.org/1999/xlink" x="0px" y="0px"
	 viewBox="0 0 100 100" enable-background="new 0 0 100 100" xml:space="preserve" height="40">
<g id="LinkedIn">
	<path d="M92.3,0H7.7C3.6,0,0.3,3.2,0.3,7.2v85.7c0,4,3.3,7.2,7.3,7.2h84.7c4.1,0,7.3-3.2,7.3-7.2V7.2C99.7,3.2,96.4,0,92.3,0z
		 M30.4,83.7h-15V38.6h15V83.7z M22.9,32.4L22.9,32.4L22.9,32.4c-5.1,0-8.4-3.5-8.4-7.8c0-4.4,3.4-7.8,8.5-7.8
		c5.1,0,8.3,3.4,8.4,7.8C31.4,28.9,28.2,32.4,22.9,32.4z M84.6,83.7h-15V59.6c0-6.1-2.2-10.2-7.6-10.2c-4.1,0-6.6,2.8-7.7,5.5
		c-0.4,1-0.5,2.3-0.5,3.7v25.2h-15c0,0,0.2-40.9,0-45.2h15V45c2-3.1,5.6-7.5,13.5-7.5c9.9,0,17.3,6.5,17.3,20.3V83.7z"/>
</g>
<g id="Twitter">
</g>
<g id="Bitbucket">
</g>
<g id="Github">
</g>
</svg>
